<svg xmlns="http://www.w3.org/2000/svg" viewBox="0 0 1047 295.34"><defs><style>.cls-1{fill:#fff;}.cls-2{fill:#333;}.cls-3{fill:#e41321;}</style></defs><title>logo_3</title><g id="Layer_2" data-name="Layer 2"><g id="Layer_1-2" data-name="Layer 1"><circle class="cls-1" cx="144.5" cy="149.84" r="119.5"/><path class="cls-2" d="M398.18,254V52.53c.76,0,1.43-.11,2.1-.11,23.1,0,46.2-.1,69.29,0,13.56.08,26.81,2,39,8.38,16.3,8.43,25,22,26.47,40.22,1.24,15.51-2.92,29.32-13.15,41.17-1.31,1.52-2.76,2.93-4.16,4.4,2.36,1.68,4.81,3.22,7,5.05,12.08,10,18.29,23,19.36,38.58,1,13.86-1.62,26.9-9.76,38.44-8.73,12.4-21.13,19.16-35.56,22.63A100.12,100.12,0,0,1,475.39,254q-37.39,0-74.79,0Zm40.53-38.58c.6,0,1,.1,1.35.1,10.79,0,21.58.16,32.36-.07a69.58,69.58,0,0,0,14-1.66c10.33-2.41,15.18-8.21,16.23-18.5,1-10-3.66-18.16-12.85-22.22a45.06,45.06,0,0,0-17.66-3.71c-10.91-.19-21.82-.1-32.73-.11a2.55,2.55,0,0,0-.73.21Zm-.11-84.13c.63.07,1,.15,1.37.15,9.9,0,19.8.06,29.71,0a33.61,33.61,0,0,0,13.44-2.68c5.54-2.42,9.43-6.36,10.5-12.46a35.78,35.78,0,0,0,.41-8.46,15,15,0,0,0-6.11-11.48,25.85,25.85,0,0,0-14.63-5.07c-10.89-.4-21.8-.25-32.7-.41-1.77,0-2,.7-2,2.24.06,12,0,24.09,0,36.14Z"/><path class="cls-2" d="M621.7,56.19q0,11,0,21.94,0-11,0-22S621.7,56.14,621.7,56.19Z"/><path class="cls-2" d="M899.59,180a73.56,73.56,0,0,1,73.61-73.48c40.46-.19,74.07,33,73.8,74.26-.25,37.21-29.56,73-73.82,73.08C932,253.94,899.59,221,899.59,180Zm73.7,35.09a34.89,34.89,0,1,0-34.93-34.94C938.24,199.21,954.16,215.14,973.29,215.12Z"/><path class="cls-2" d="M845.9,253.39V117.26l38.76-12.83v149Z"/><path class="cls-2" d="M561.47,253.39V117.26l38.76-12.83v149Z"/><path class="cls-2" d="M821.5,45.55v149h0v59.05H782.64c0-.37-.11-.77-.11-1.17V194.51h0V58.38Z"/><path class="cls-2" d="M768.16,168.67c-8.24-50.09-59-75.3-102.88-56.28-1.51.65-3,1.39-4.74,2.21V41.28l-38.8,12.83v2q0,11,0,22,0,15.72,0,31.43,0,35.5,0,71a71.71,71.71,0,0,0,2.54,18.88c10,36.72,47.29,59.86,84.83,52.63C747.93,244.6,774.53,207.43,768.16,168.67Zm-72.83,46A34.86,34.86,0,0,1,660.54,181q0-.73,0-1.47c0-.43,0-.85,0-1.28a34.91,34.91,0,0,1,69.79,1.52C730.42,198.75,714.48,214.66,695.33,214.64Z"/><path class="cls-2" d="M621.72,78.13q0,15.72,0,31.43c-.06-1.57-.09-3.15-.08-4.72Q621.69,91.49,621.72,78.13Z"/><path class="cls-2" d="M660.54,178.2V181q0-.73,0-1.47C660.51,179.05,660.52,178.63,660.54,178.2Z"/><path class="cls-3" d="M147.67,0A147.67,147.67,0,1,0,295.34,147.67,147.68,147.68,0,0,0,147.67,0ZM100.14,204.74c-5.11-.25-7.52-4.47-5.52-8.18a18.56,18.56,0,0,1,3.38-4q42.26-42.34,84.52-84.64c.41-.42.84-.82,1.25-1.24,2.85-2.91,6.19-5,9.62-1.5s1.07,6.75-1.75,9.58q-43.53,43.53-87.08,87A23.1,23.1,0,0,1,100.14,204.74Zm24.25,23.52c-5.41,0-8-4.22-6-8a17.33,17.33,0,0,1,3.36-4q42.69-42.78,85.39-85.55c2.83-2.84,6-5.24,9.64-2.12,3.81,3.27,1.77,6.59-1.14,9.51Q195.69,158,175.82,178q-23.22,23.24-46.52,46.42A46,46,0,0,1,124.39,228.26Zm107.39-56.94q-38.06,38.35-76.33,76.48c-.7.69-1.42,1.36-2.1,2.06-2.7,2.74-5.83,4.74-9.14,1.52-3.59-3.48-1.4-6.74,1.44-9.61,3.44-3.48,6.85-7,10.32-10.44,22.71-22.68,45.58-45.22,68.14-68.06,23.64-23.94,16.33-63.07-14.22-75.55C190.93,80,173.52,83.81,159,98c-26,25.45-51.64,51.34-77.38,77.09-6.59,6.59-7.7,6.43-14.64-.2-12.59-12-20.59-26.31-20.51-43.94C46.61,106.63,57.58,88.45,79.81,78a57,57,0,0,1,62.87,10.16l4.91,4.53c1.62-1.4,2.95-2.49,4.22-3.65,24-22,60-21.18,82,1.8C255.17,113.14,254.34,148.59,231.78,171.32Z"/></g></g></svg>