<svg xmlns="http://www.w3.org/2000/svg" viewBox="0 0 295.34 295.34"><defs><style>.cls-1{fill:#fff;}</style></defs><title>white_favicon</title><g id="Layer_2" data-name="Layer 2"><g id="Layer_1-2" data-name="Layer 1"><path class="cls-1" d="M147.67,0A147.67,147.67,0,1,0,295.34,147.67,147.68,147.68,0,0,0,147.67,0ZM100.14,204.74c-5.11-.25-7.52-4.47-5.52-8.18a18.56,18.56,0,0,1,3.38-4q42.26-42.34,84.52-84.64c.41-.42.84-.82,1.25-1.24,2.85-2.91,6.19-5,9.62-1.5s1.07,6.75-1.75,9.58q-43.53,43.53-87.08,87A23.1,23.1,0,0,1,100.14,204.74Zm24.25,23.52c-5.41,0-8-4.22-6-8a17.33,17.33,0,0,1,3.36-4q42.69-42.78,85.39-85.55c2.83-2.84,6-5.24,9.64-2.12,3.81,3.27,1.77,6.59-1.14,9.51Q195.69,158,175.82,178q-23.22,23.24-46.52,46.42A46,46,0,0,1,124.39,228.26Zm107.39-56.94q-38.06,38.35-76.33,76.48c-.7.69-1.42,1.36-2.1,2.06-2.7,2.74-5.83,4.74-9.14,1.52-3.59-3.48-1.4-6.74,1.44-9.61,3.44-3.48,6.85-7,10.32-10.44,22.71-22.68,45.58-45.22,68.14-68.06,23.64-23.94,16.33-63.07-14.22-75.55C190.93,80,173.52,83.81,159,98c-26,25.45-51.64,51.34-77.38,77.09-6.59,6.59-7.7,6.43-14.64-.2-12.59-12-20.59-26.31-20.51-43.94C46.61,106.63,57.58,88.45,79.81,78a57,57,0,0,1,62.87,10.16l4.91,4.53c1.62-1.4,2.95-2.49,4.22-3.65,24-22,60-21.18,82,1.8C255.17,113.14,254.34,148.59,231.78,171.32Z"/></g></g></svg>